<?xml version="1.0" standalone="no"?>
<!DOCTYPE svg PUBLIC "-//W3C//DTD SVG 20010904//EN"
 "http://www.w3.org/TR/2001/REC-SVG-20010904/DTD/svg10.dtd">
<svg version="1.0" xmlns="http://www.w3.org/2000/svg"
 width="115.000000pt" height="115.000000pt" viewBox="0 0 115.000000 115.000000"
 preserveAspectRatio="xMidYMid meet">
<metadata>
Created by potrace 1.14, written by Peter Selinger 2001-2017
</metadata>
<g transform="translate(0.000000,115.000000) scale(0.100000,-0.100000)"
fill="#000000" stroke="none">
<path d="M320 850 c-8 -4 -31 -15 -50 -24 -48 -21 -110 -83 -110 -109 0 -7 -3
-17 -7 -21 -4 -3 -9 -14 -11 -24 -5 -23 -6 -153 -1 -172 10 -36 32 -80 40 -80
5 0 9 -5 9 -11 0 -23 72 -68 114 -71 14 -1 26 -5 26 -9 0 -5 122 -4 128 1 4 4
21 7 45 9 13 0 32 7 42 15 17 12 19 28 20 136 1 100 -2 123 -14 129 -9 5 -56
8 -106 7 l-90 -1 -3 -32 c-3 -35 6 -41 71 -45 l37 -2 0 -51 c0 -27 -4 -55 -8
-61 -10 -16 -88 -24 -101 -11 -6 6 -11 7 -11 2 0 -4 -9 0 -20 10 -11 10 -20
15 -20 10 0 -4 -8 3 -19 16 -20 26 -34 62 -36 95 -1 11 -5 26 -9 32 -4 7 -4
12 1 12 4 0 9 11 9 25 5 77 72 135 156 135 52 0 108 -17 108 -33 0 -6 3 -7 6
-4 4 3 15 2 25 -4 15 -8 19 -5 24 13 13 56 -28 108 -85 108 -12 0 -19 3 -17 8
7 9 -92 7 -117 -4 -14 -5 -17 -4 -12 4 8 14 7 14 -14 2z"/>
<path d="M751 842 c-35 -2 -69 -8 -75 -15 -15 -16 -15 -462 0 -477 18 -18 264
-16 264 2 0 4 7 5 15 2 8 -4 15 -2 15 3 0 4 15 16 33 26 28 15 69 70 73 99 1
4 2 9 4 11 11 13 16 144 7 177 -8 30 -20 55 -35 73 -8 9 -12 17 -9 17 3 0 -4
10 -16 23 -12 13 -25 22 -29 20 -4 -2 -19 4 -33 13 -29 19 -121 30 -214 26z
m139 -94 c29 -9 65 -27 56 -27 -5 -1 -1 -9 8 -20 20 -22 33 -161 15 -161 -6 0
-7 -4 -4 -10 13 -21 -36 -80 -75 -88 -65 -13 -100 -11 -108 5 -5 10 -8 77 -7
148 3 185 -3 168 53 162 26 -3 54 -7 62 -9z"/>
</g>
</svg>
